<svg width="22" height="28" viewBox="0 0 22 28" fill="none" xmlns="http://www.w3.org/2000/svg">
<path d="M18.48 0C19.6496 0 20.2344 -2.08753e-05 20.7621 0.335857C21.1587 0.588296 21.5888 1.16925 21.7227 1.63334C21.901 2.2508 21.7857 2.71159 21.5552 3.63313C20.0131 9.796 14.6407 14.3443 8.25 14.3443H4.22018C9.07579 15.9761 12.7525 20.3479 13.5763 25.7139C13.7684 26.9655 12.765 28 11.55 28H2.2C0.984974 28 0 26.9725 0 25.7049V9.18033C0 5.96695 -2.61211e-05 4.36023 0.599414 3.13288C1.12672 2.05326 1.96819 1.17541 3.00309 0.62532C4.17959 -2.72501e-05 5.71975 0 8.8 0H18.48Z" fill="white"/>
<path d="M17.6 14.3443C20.0301 14.3443 22 16.3993 22 18.9344C22 21.4695 20.0301 23.5246 17.6 23.5246C15.1699 23.5246 13.2 21.4695 13.2 18.9344C13.2 16.3993 15.1699 14.3443 17.6 14.3443Z" fill="white"/>
</svg>
