<svg width="730" height="111" viewBox="0 0 730 111" fill="none" xmlns="http://www.w3.org/2000/svg">
<path d="M0 109.233V3.0179H93.8208V19.506H20.4538V50.4947H89.152V66.1731H20.4538V109.233H0Z" fill="white"/>
<path d="M136.845 111C129.484 111 123.135 109.626 117.799 106.878C112.513 104.081 108.412 100.057 105.497 94.8064C102.632 89.5066 101.199 83.1273 101.199 75.6684V31.504H120.912V72.0617C120.912 79.5696 122.839 85.3601 126.692 89.433C130.546 93.506 136.203 95.5424 143.663 95.5424C147.566 95.5424 151.123 94.9781 154.334 93.8495C157.546 92.6718 160.337 90.9788 162.709 88.7706C165.08 86.5623 166.908 83.8879 168.193 80.7474C169.527 77.6068 170.194 74.0736 170.194 70.1479V31.504H189.906V109.233H170.194V93.9967H169.749C167.872 97.4317 165.327 100.425 162.116 102.977C158.954 105.529 155.224 107.516 150.926 108.939C146.677 110.313 141.983 111 136.845 111Z" fill="white"/>
<path d="M242.416 111C233.227 111 225.396 110.043 218.924 108.129C212.452 106.216 207.413 103.468 203.806 99.8853C200.199 96.254 198.075 91.9111 197.433 86.8568L197.359 86.1943L216.775 86.2679L216.923 86.7832C217.812 90.4145 220.382 93.1379 224.63 94.9536C228.879 96.7692 234.882 97.6771 242.639 97.6771C247.233 97.6771 251.112 97.2845 254.274 96.4993C257.436 95.6651 259.832 94.4874 261.462 92.9662C263.092 91.445 263.908 89.6048 263.908 87.4456V87.372C263.908 84.7222 262.821 82.7347 260.647 81.4098C258.522 80.0358 254.743 79.0298 249.308 78.3919L227.669 76.1837C221.444 75.4476 216.256 74.1472 212.106 72.2825C208.006 70.4178 204.918 67.9887 202.843 64.9954C200.768 61.9529 199.73 58.3707 199.73 54.2487V54.1751C199.73 49.1207 201.311 44.7779 204.473 41.1466C207.635 37.4662 212.18 34.6446 218.109 32.6817C224.038 30.7188 231.103 29.7374 239.304 29.7374C247.999 29.7374 255.41 30.7188 261.536 32.6817C267.663 34.5955 272.381 37.3435 275.691 40.9257C279.05 44.508 280.928 48.7527 281.323 53.6598L281.397 54.4695H263.018L262.944 54.0279C262.401 50.6419 260.079 47.9675 255.978 46.0046C251.927 44.0418 246.443 43.0603 239.526 43.0603C235.129 43.0603 231.424 43.4775 228.41 44.3117C225.396 45.0968 223.124 46.25 221.592 47.7712C220.06 49.2434 219.295 51.059 219.295 53.2182V53.2918C219.295 54.9602 219.764 56.3833 220.703 57.561C221.691 58.7387 223.247 59.7202 225.372 60.5053C227.545 61.2414 230.386 61.8057 233.894 62.1983L255.756 64.4065C265.736 65.5351 272.899 67.8415 277.247 71.3256C281.595 74.7606 283.769 79.6187 283.769 85.8999V85.9735C283.769 91.126 282.114 95.5915 278.803 99.37C275.543 103.099 270.824 105.97 264.649 107.982C258.473 109.994 251.062 111 242.416 111Z" fill="white"/>
<path d="M291.814 109.233V31.504H311.601V109.233H291.814ZM301.744 20.3893C298.533 20.3893 295.865 19.4078 293.741 17.445C291.616 15.4821 290.554 13.0531 290.554 10.1578C290.554 7.31167 291.616 4.90716 293.741 2.9443C295.865 0.981432 298.533 0 301.744 0C304.956 0 307.599 0.981432 309.674 2.9443C311.798 4.90716 312.86 7.31167 312.86 10.1578C312.86 13.0531 311.798 15.4821 309.674 17.445C307.599 19.4078 304.956 20.3893 301.744 20.3893Z" fill="white"/>
<path d="M368.335 111C358.651 111 350.154 109.356 342.842 106.068C335.579 102.731 329.922 98.0451 325.871 92.0093C321.82 85.9244 319.794 78.7354 319.794 70.4423V70.2951C319.794 62.002 321.82 54.8375 325.871 48.8017C329.972 42.7168 335.653 38.0305 342.916 34.7427C350.228 31.4058 358.701 29.7374 368.335 29.7374C378.018 29.7374 386.516 31.4058 393.828 34.7427C401.14 38.0305 406.822 42.7168 410.873 48.8017C414.924 54.8375 416.95 62.002 416.95 70.2951V70.4423C416.95 78.7354 414.924 85.9244 410.873 92.0093C406.822 98.0451 401.14 102.731 393.828 106.068C386.565 109.356 378.068 111 368.335 111ZM368.409 96.0577C374.041 96.0577 378.982 95.0517 383.231 93.0398C387.529 91.0279 390.864 88.1326 393.235 84.3541C395.656 80.5265 396.866 75.8893 396.866 70.4423V70.2951C396.866 64.8481 395.656 60.2354 393.235 56.4569C390.864 52.6293 387.529 49.7096 383.231 47.6976C378.932 45.6857 373.967 44.6797 368.335 44.6797C362.752 44.6797 357.811 45.6857 353.513 47.6976C349.264 49.7096 345.93 52.6293 343.509 56.4569C341.088 60.2354 339.877 64.8481 339.877 70.2951V70.4423C339.877 75.8893 341.063 80.5265 343.435 84.3541C345.855 88.1326 349.215 91.0279 353.513 93.0398C357.811 95.0517 362.777 96.0577 368.409 96.0577Z" fill="white"/>
<path d="M424.55 109.233V31.504H444.263V46.6671H444.634C447.548 41.4655 451.847 37.3435 457.528 34.3011C463.21 31.2586 469.978 29.7374 477.834 29.7374C489.247 29.7374 498.115 32.8535 504.439 39.0855C510.763 45.3176 513.925 54.1015 513.925 65.437V109.233H494.138V68.9702C494.138 61.2168 492.186 55.3037 488.283 51.2308C484.38 47.1578 478.624 45.1214 471.016 45.1214C465.631 45.1214 460.937 46.1764 456.935 48.2865C452.934 50.3966 449.821 53.3654 447.598 57.193C445.375 60.9715 444.263 65.437 444.263 70.5895V109.233H424.55Z" fill="white"/>
<path d="M552.544 109.233L604.642 3.0179H622.576V20.9045H616.351L574.183 109.233H552.544ZM576.629 81.7042L583.595 66.9092H649.329L656.073 81.7042H576.629ZM658.889 109.233L616.721 20.9045V3.0179H628.505L680.528 109.233H658.889Z" fill="white"/>
<path d="M709.917 109.233V21.0517H709.472L677.531 39.4536V21.935L709.768 3.0179H730V109.233H709.917Z" fill="white"/>
</svg>
